HIERARCHY
ROOT Hips
{
  OFFSET 5.80788e-005 67.184 3.4734
  CHANNELS 6 Xposition Yposition Zposition Zrotation Xrotation Yrotation
  JOINT Chest
  {
    OFFSET 0 8.7983 -4.7612
    CHANNELS 3 Zrotation Xrotation Yrotation
    JOINT Chest2
    {
      OFFSET 0 8.0291 0.4195
      CHANNELS 3 Zrotation Xrotation Yrotation
      JOINT Chest3
      {
        OFFSET 0 9.9351 -2.2114
        CHANNELS 3 Zrotation Xrotation Yrotation
        JOINT Neck
        {
          OFFSET 0 22.3885 -0.4656
          CHANNELS 3 Zrotation Xrotation Yrotation
          JOINT Head
          {
            OFFSET -0.0001 12.643 3.4389
            CHANNELS 3 Zrotation Xrotation Yrotation
            End Site
            {
              OFFSET 0.0001 17.6655 0.5274
            }
          }
        }
        JOINT LeftCollar
        {
          OFFSET 2.2603 21.606 7.4023
          CHANNELS 3 Zrotation Xrotation Yrotation
          JOINT LeftShoulder
          {
            OFFSET 13.5163 -1.1332 -5.0146
            CHANNELS 3 Zrotation Xrotation Yrotation
            JOINT LeftElbow
            {
              OFFSET -0.0995 -28.05 -0.2431
              CHANNELS 3 Zrotation Xrotation Yrotation
              JOINT LeftWrist
              {
                OFFSET 0.0679 -23.3996 -0.1402
                CHANNELS 3 Zrotation Xrotation Yrotation
                JOINT LeftFinger1
                {
                  OFFSET 0.7932 -9.069 2.5189
                  CHANNELS 3 Zrotation Xrotation Yrotation
                  JOINT LeftFinger11
                  {
                    OFFSET -0.8272 -3.3923 0.5977
                    CHANNELS 3 Zrotation Xrotation Yrotation
                    JOINT LeftFinger12
                    {
                      OFFSET -0.5649 -2.3158 0.4082
                      CHANNELS 3 Zrotation Xrotation Yrotation
                      End Site
                      {
                        OFFSET -0.4919 -1.6479 0.2673
                      }
                    }
                  }
                }
                JOINT LeftFinger2
                {
                  OFFSET 0.9159 -9.2044 0.2193
                  CHANNELS 3 Zrotation Xrotation Yrotation
                  JOINT LeftFinger21
                  {
                    OFFSET 0.0117 -4.1944 -0.0248
                    CHANNELS 3 Zrotation Xrotation Yrotation
                    JOINT LeftFinger22
                    {
                      OFFSET 0.0071 -2.3249 -0.0142
                      CHANNELS 3 Zrotation Xrotation Yrotation
                      End Site
                      {
                        OFFSET -0.1475 -2.0882 0.0028
                      }
                    }
                  }
                }
                JOINT LeftFinger3
                {
                  OFFSET 0.6113 -8.7231 -2.0637
                  CHANNELS 3 Zrotation Xrotation Yrotation
                  JOINT LeftFinger31
                  {
                    OFFSET -0.1927 -3.8059 -0.2383
                    CHANNELS 3 Zrotation Xrotation Yrotation
                    JOINT LeftFinger32
                    {
                      OFFSET -0.1091 -2.1688 -0.1362
                      CHANNELS 3 Zrotation Xrotation Yrotation
                      End Site
                      {
                        OFFSET -0.2358 -1.9176 -0.0906
                      }
                    }
                  }
                }
                JOINT LeftFinger4
                {
                  OFFSET -0.6151 -8.0947 -3.5641
                  CHANNELS 3 Zrotation Xrotation Yrotation
                  JOINT LeftFinger41
                  {
                    OFFSET -0.4882 -2.341 -0.6462
                    CHANNELS 3 Zrotation Xrotation Yrotation
                    JOINT LeftFinger42
                    {
                      OFFSET -0.3575 -1.7167 -0.4742
                      CHANNELS 3 Zrotation Xrotation Yrotation
                      End Site
                      {
                        OFFSET -0.4187 -1.5237 -0.3496
                      }
                    }
                  }
                }
                JOINT LeftFinger0
                {
                  OFFSET -1.42 -1.8761 1.4223
                  CHANNELS 3 Zrotation Xrotation Yrotation
                  JOINT LeftFinger01
                  {
                    OFFSET -1.1471 -3.4929 2.6334
                    CHANNELS 3 Zrotation Xrotation Yrotation
                    JOINT LeftFinger02
                    {
                      OFFSET -0.823 -2.3 1.6571
                      CHANNELS 3 Zrotation Xrotation Yrotation
                      End Site
                      {
                        OFFSET -0.5822 -1.6914 1.1582
                      }
                    }
                  }
                }
              }
            }
          }
        }
        JOINT RightCollar
        {
          OFFSET -2.2603 21.606 7.4023
          CHANNELS 3 Zrotation Xrotation Yrotation
          JOINT RightShoulder
          {
            OFFSET -13.5187 -1.1334 -5.0155
            CHANNELS 3 Zrotation Xrotation Yrotation
            JOINT RightElbow
            {
              OFFSET 0.0994 -28.0499 -0.2431
              CHANNELS 3 Zrotation Xrotation Yrotation
              JOINT RightWrist
              {
                OFFSET -0.0679 -23.3996 -0.1402
                CHANNELS 3 Zrotation Xrotation Yrotation
                JOINT RightFinger1
                {
                  OFFSET -0.7932 -9.0691 2.5189
                  CHANNELS 3 Zrotation Xrotation Yrotation
                  JOINT RightFinger11
                  {
                    OFFSET 0.8272 -3.3923 0.5977
                    CHANNELS 3 Zrotation Xrotation Yrotation
                    JOINT RightFinger12
                    {
                      OFFSET 0.565 -2.3158 0.4082
                      CHANNELS 3 Zrotation Xrotation Yrotation
                      End Site
                      {
                        OFFSET 0.4919 -1.6479 0.2673
                      }
                    }
                  }
                }
                JOINT RightFinger2
                {
                  OFFSET -0.916 -9.2044 0.2193
                  CHANNELS 3 Zrotation Xrotation Yrotation
                  JOINT RightFinger21
                  {
                    OFFSET -0.0117 -4.1944 -0.0248
                    CHANNELS 3 Zrotation Xrotation Yrotation
                    JOINT RightFinger22
                    {
                      OFFSET -0.0071 -2.3249 -0.0142
                      CHANNELS 3 Zrotation Xrotation Yrotation
                      End Site
                      {
                        OFFSET 0.1475 -2.0882 0.0028
                      }
                    }
                  }
                }
                JOINT RightFinger3
                {
                  OFFSET -0.6113 -8.7231 -2.0637
                  CHANNELS 3 Zrotation Xrotation Yrotation
                  JOINT RightFinger31
                  {
                    OFFSET 0.1927 -3.8059 -0.2383
                    CHANNELS 3 Zrotation Xrotation Yrotation
                    JOINT RightFinger32
                    {
                      OFFSET 0.1091 -2.1688 -0.1362
                      CHANNELS 3 Zrotation Xrotation Yrotation
                      End Site
                      {
                        OFFSET 0.2358 -1.9176 -0.0906
                      }
                    }
                  }
                }
                JOINT RightFinger4
                {
                  OFFSET 0.6151 -8.0947 -3.564
                  CHANNELS 3 Zrotation Xrotation Yrotation
                  JOINT RightFinger41
                  {
                    OFFSET 0.4882 -2.341 -0.6462
                    CHANNELS 3 Zrotation Xrotation Yrotation
                    JOINT RightFinger42
                    {
                      OFFSET 0.3574 -1.7166 -0.4742
                      CHANNELS 3 Zrotation Xrotation Yrotation
                      End Site
                      {
                        OFFSET 0.4187 -1.5237 -0.3496
                      }
                    }
                  }
                }
                JOINT RightFinger0
                {
                  OFFSET 1.4199 -1.8761 1.4221
                  CHANNELS 3 Zrotation Xrotation Yrotation
                  JOINT RightFinger01
                  {
                    OFFSET 1.1472 -3.4929 2.6336
                    CHANNELS 3 Zrotation Xrotation Yrotation
                    JOINT RightFinger02
                    {
                      OFFSET 0.8229 -2.3 1.6571
                      CHANNELS 3 Zrotation Xrotation Yrotation
                      End Site
                      {
                        OFFSET 0.5822 -1.6914 1.1582
                      }
                    }
                  }
                }
              }
            }
          }
        }
      }
    }
  }
  JOINT RightHip
  {
    OFFSET -9.412 3.9771 -0.7758
    CHANNELS 3 Zrotation Xrotation Yrotation
    JOINT RightKnee
    {
      OFFSET -0.7531 -40.938 0
      CHANNELS 3 Zrotation Xrotation Yrotation
      JOINT RightAnkle
      {
        OFFSET 0 -40.1986 0
        CHANNELS 3 Zrotation Xrotation Yrotation
        JOINT RightToe
        {
          OFFSET 0 -4.4182 9.239
          CHANNELS 3 Zrotation Xrotation Yrotation
          End Site
          {
            OFFSET 0 0 6.1981
          }
        }
      }
    }
  }
  JOINT LeftHip
  {
    OFFSET 9.4119 3.9773 -0.7758
    CHANNELS 3 Zrotation Xrotation Yrotation
    JOINT LeftKnee
    {
      OFFSET 0.7532 -40.9383 0
      CHANNELS 3 Zrotation Xrotation Yrotation
      JOINT LeftAnkle
      {
        OFFSET 0 -40.1986 0
        CHANNELS 3 Zrotation Xrotation Yrotation
        JOINT LeftToe
        {
          OFFSET 0 -4.4182 9.239
          CHANNELS 3 Zrotation Xrotation Yrotation
          End Site
          {
            OFFSET 0 0 6.1981
          }
        }
      }
    }
  }
}
MOTION
Frames:	4
Frame Time:	0.0333333
5.80788e-005 67.184 3.4734 0 0 -0 0 0 -0 0 0 -0 0 0 -0 0 0 -0 0 0 -0 0 0 -12.5014 88.1196 14.2451 10.6914 -0.00160068 -0.00239207 0.000740045 -8.4365e-005 7.00714e-005 -9.52055e-007 9.93923e-017 -1.98785e-016 -1.59028e-015 9.93923e-017 -5.96354e-016 -1.59028e-015 -9.93923e-017 -5.96354e-016 -1.59028e-015 9.93923e-017 -1.98785e-016 -1.59028e-015 -0.0128176 0.00232552 8.52707e-005 9.93923e-017 5.96354e-016 -0 9.93923e-017 -1.98785e-016 -1.59028e-015 -0.0160551 0.00299681 0.000857156 -2.48481e-016 0 3.18055e-015 9.93923e-017 -1.98785e-016 -1.59028e-015 -0.0125865 0.0031206 0.00282719 0 1.98785e-016 -0 9.93923e-017 -1.98785e-016 -1.59028e-015 9.93923e-017 -5.96354e-016 -1.59028e-015 -9.93923e-017 -5.96354e-016 -1.59028e-015 -0.865644 0.16582 7.03859 -88.0329 10.2057 -10.5567 0.0015593 -0.00248883 -0.000788628 7.87605e-005 4.10553e-005 1.24965e-005 -3.97569e-016 -7.95139e-016 3.18055e-015 -1.98785e-016 -3.97569e-016 3.18055e-015 -1.98785e-016 0 3.18055e-015 -3.97569e-016 -7.95139e-016 3.18055e-015 0.0129473 0.00231697 -8.70038e-005 9.93923e-017 -7.95139e-016 1.59028e-015 -3.97569e-016 -7.95139e-016 3.18055e-015 0.0163314 0.00303369 -0.000872333 3.97569e-016 7.95139e-016 -3.18055e-015 -3.97569e-016 -7.95139e-016 3.18055e-015 0.0145763 0.00367772 -0.00326275 9.93923e-017 -3.97569e-016 -0 -3.97569e-016 -7.95139e-016 3.18055e-015 -1.98785e-016 -3.97569e-016 3.18055e-015 -1.98785e-016 0 3.18055e-015 3.42485 1.36937 -0.0640303 0.000136572 0.69354 0.00145564 -3.42573 -2.06297 -0.0607933 -3.19502e-024 0 -1.48106e-024 -3.42498 1.36123 0.0639712 -6.769e-005 0.712612 -0.0012277 3.42582 -2.07388 0.0612819 2.55305e-023 0 -2.31416e-026 
39.8406 0.815262 9.06999 2.5518e-008 -72.0011 6.22277e-008 -0.0122324 1.80159 -0.109019 -0.0210489 3.60317 -0.217815 -0.0210489 3.60318 -0.217815 -3.48154e-007 17.9983 1.84924e-006 6.06423e-008 8.99857 1.85493e-008 -12.5289 25.6944 -34.6368 46.1935 5.38528 10.5527 -2.86214 -7.87415 -11.1035 -15.838 -12.2374 -39.5729 2.04366e-006 -1.12621e-005 -2.26941e-006 3.18055e-015 0 1.78906e-015 6.36111e-015 -7.95139e-016 -1.78906e-015 2.04366e-006 -1.12621e-005 -2.26941e-006 -0.0128149 0.00233525 8.60408e-005 3.18055e-015 -7.95139e-016 -9.93923e-016 2.04366e-006 -1.12621e-005 -2.26941e-006 -0.0160302 0.00299655 0.000850079 0 0 -1.78906e-015 2.04366e-006 -1.12621e-005 -2.26941e-006 -0.0126043 0.00313844 0.0028355 -9.54166e-015 -1.59028e-015 -1.19271e-015 2.04366e-006 -1.12621e-005 -2.26941e-006 3.18055e-015 0 1.78906e-015 6.36111e-015 -7.95139e-016 -1.78906e-015 12.7125 25.8208 29.3592 -47.1632 2.78753 -6.83176 2.29479 -8.00436 10.9402 15.6095 -13.3345 39.6616 3.18055e-015 -1.59028e-015 7.95139e-016 -5.11668e-006 -5.28958e-006 9.65863e-006 3.18055e-015 0 -3.97569e-016 3.18055e-015 -1.59028e-015 7.95139e-016 0.0129528 0.0023195 -8.15846e-005 -2.56292e-006 -5.59756e-006 -8.1856e-006 3.18055e-015 -1.59028e-015 7.95139e-016 0.01632 0.00302344 -0.000865485 -6.36111e-015 1.59028e-015 1.98785e-015 3.18055e-015 -1.59028e-015 7.95139e-016 0.0145785 0.00367345 -0.00325465 -7.72434e-031 -3.97569e-015 -1.11319e-014 3.18055e-015 -1.59028e-015 7.95139e-016 -5.11668e-006 -5.28958e-006 9.65863e-006 3.18055e-015 0 -3.97569e-016 177.501 -9.8405 168.742 -167.841 37.5206 136.725 0.545244 46.3191 -9.49436 9.18481e-008 -4.64356e-006 -1.0591e-006 -177.512 -9.83809 -168.757 167.878 37.5286 -136.778 -0.568947 46.2888 9.50574 -1.77553e-005 -1.01182e-005 6.37989e-006 
39.8396 0.968475 9.18791 -6.50034e-008 -72.8875 -6.3532e-008 -0.0130913 2.02285 -0.1087 -0.0223604 4.0457 -0.217139 -0.0223604 4.04569 -0.217139 1.21346e-007 17.527 -1.25564e-006 2.54762e-008 8.779 -7.07431e-008 -11.0939 24.9617 -34.9565 45.3343 5.29704 10.5626 -3.65513 -8.80625 -11.2733 -15.7611 -11.4924 -39.2855 -3.24542e-008 -4.38684e-006 1.69252e-006 6.36111e-015 -7.95139e-016 -7.95139e-016 0 0 -5.96354e-016 -3.24542e-008 -4.38684e-006 1.69252e-006 -0.0128173 0.0023285 8.0969e-005 9.54166e-015 7.95139e-016 1.39149e-015 -3.24542e-008 -4.38684e-006 1.69252e-006 -0.0160284 0.00298349 0.000852457 -3.18055e-015 1.27222e-014 1.78906e-015 -3.24542e-008 -4.38684e-006 1.69252e-006 -0.0126092 0.0031207 0.00282817 -3.18055e-015 -7.95139e-016 -7.95139e-016 -3.24542e-008 -4.38684e-006 1.69252e-006 6.36111e-015 -7.95139e-016 -7.95139e-016 0 0 -5.96354e-016 11.2356 25.0681 29.6919 -46.247 2.73494 -6.78137 3.08002 -8.92439 11.1032 15.5209 -12.5869 39.3914 4.41391e-032 -7.95139e-016 3.18055e-015 3.18055e-015 1.59028e-015 1.19271e-015 -1.10348e-032 1.59028e-015 3.97569e-016 4.41391e-032 -7.95139e-016 3.18055e-015 0.0129476 0.00232729 -9.37695e-005 -9.54166e-015 0 2.78299e-015 4.41391e-032 -7.95139e-016 3.18055e-015 0.016314 0.0030347 -0.00086426 0 0 -3.97569e-015 4.41391e-032 -7.95139e-016 3.18055e-015 0.0145729 0.00367304 -0.00326423 -0 0 7.95139e-016 4.41391e-032 -7.95139e-016 3.18055e-015 3.18055e-015 1.59028e-015 1.19271e-015 -1.10348e-032 1.59028e-015 3.97569e-016 177.626 -10.7467 168.79 -167.843 37.5154 136.729 0.543751 46.3224 -9.49201 3.97569e-015 0 2.38542e-015 -177.452 -10.7044 -168.71 167.879 37.5252 -136.779 -0.56926 46.2878 9.50551 5.13543e-006 -9.05456e-006 1.23521e-006 
39.8385 1.12152 9.30391 8.2038e-009 -73.7749 1.6607e-009 -0.0139525 2.24447 -0.10837 -0.0236801 4.48892 -0.216441 -0.0236801 4.48894 -0.216441 -3.17313e-008 17.0551 1.60029e-007 -6.82638e-008 8.55927 -1.26582e-007 -9.66764 24.2199 -35.2548 44.4743 5.20875 10.5711 -4.45437 -9.73769 -11.457 -15.6881 -10.7464 -38.9996 4.30724e-006 1.98353e-006 -6.53763e-007 -9.54166e-015 -3.18055e-015 1.27222e-014 -3.18055e-015 -4.77083e-015 1.45113e-014 4.30724e-006 1.98353e-006 -6.53763e-007 -0.0128361 0.0023218 8.32611e-005 1.01954e-006 8.78415e-006 7.56765e-006 4.30724e-006 1.98353e-006 -6.53763e-007 -0.0160468 0.00299626 0.000860947 -3.18055e-015 1.59028e-015 2.5842e-015 4.30724e-006 1.98353e-006 -6.53763e-007 -0.0125811 0.00313607 0.00283051 -6.50722e-008 -1.49033e-006 3.38457e-006 4.30724e-006 1.98353e-006 -6.53763e-007 -9.54166e-015 -3.18055e-015 1.27222e-014 -3.18055e-015 -4.77083e-015 1.45113e-014 9.76796 24.3054 30.0021 -45.3322 2.67878 -6.72996 3.87313 -9.83925 11.2794 15.4361 -11.8383 39.1231 3.14299e-006 -6.39227e-008 3.17182e-007 1.43987e-006 1.82671e-006 3.53341e-006 4.97773e-006 6.81616e-007 -6.27386e-006 3.14299e-006 -6.39227e-008 3.17182e-007 0.0129483 0.00232427 -8.20513e-005 -4.82551e-007 -2.02463e-007 -1.14875e-006 3.14299e-006 -6.39227e-008 3.17182e-007 0.0163263 0.00302621 -0.000871752 5.47397e-006 3.57511e-006 7.92289e-006 3.14299e-006 -6.39227e-008 3.17182e-007 0.0145697 0.00367455 -0.00325867 -3.18055e-015 7.95139e-016 -3.97569e-016 3.14299e-006 -6.39227e-008 3.17182e-007 1.43987e-006 1.82671e-006 3.53341e-006 4.97773e-006 6.81616e-007 -6.27386e-006 177.753 -11.6626 168.839 -167.842 37.5188 136.731 0.542295 46.3256 -9.4897 -4.94039e-008 -1.12543e-005 -7.07019e-006 -177.391 -11.5826 -168.662 167.877 37.5325 -136.778 -0.569518 46.287 9.50516 7.07897e-007 -4.10465e-007 4.7337e-007 
